<svg xmlns="http://www.w3.org/2000/svg" width="1600" height="1500" viewBox="0 0 1600 1500">
<title>客飯廳與加建細房：尺寸平面圖 v10</title>
<desc>依原圖方向投影，圖則尺寸、用戶量度和圖像比例推算以不同顏色標示。家具尺寸仍為估算。</desc>
<style>text{font-family:"Microsoft JhengHei","Noto Sans TC",sans-serif;fill:#302e29} .note{font-size:21px} .label{font-size:21px;font-weight:600} .dim{font-size:20px;font-weight:600} .small{font-size:18px}</style>
<rect width="1600" height="1500" fill="#faf8f3"/>
<text x="65" y="65" font-size="34" font-weight="600">客飯廳＋加建細房 · 尺寸平面圖 v10</text>
<text x="65" y="108" class="note">方向與原平面圖一致：上方為客廳主窗，下方為加建細房／飯廳</text>
<text x="65" y="144" class="small">按 3D 模型比例輸出；標示資料來源，家具擺位及未標尺寸仍為估算。</text>
<polygon points="969.4,1142.4 601.2,1142.4 601.2,954.8 969.4,954.8" fill="#e1d4bf" fill-opacity="1" stroke="#c9bcaa" stroke-width="1"/>
<polygon points="969.4,954.8 594.2,954.8 594.2,823.9 969.4,823.9" fill="#e1d4bf" fill-opacity="1" stroke="#c9bcaa" stroke-width="1"/>
<polygon points="969.4,823.9 594.2,823.9 594.2,362.6 969.4,362.6" fill="#e1d4bf" fill-opacity="1" stroke="#c9bcaa" stroke-width="1"/>
<polygon points="1316.6,823.9 969.4,823.9 969.4,679.0 1316.6,679.0" fill="#e1d4bf" fill-opacity="1" stroke="#c9bcaa" stroke-width="1"/>
<polygon points="1295.6,659.4 1001.6,659.4 1001.6,347.2 1295.6,347.2" fill="#e1d4bf" fill-opacity="1" stroke="#c9bcaa" stroke-width="1"/>
<polygon points="594.2,729.4 300.2,729.4 300.2,602.0 594.2,602.0" fill="#e1d4bf" fill-opacity="1" stroke="#c9bcaa" stroke-width="1"/>
<polygon points="594.2,602.0 283.4,602.0 283.4,280.0 594.2,280.0" fill="#e8e6db" fill-opacity="1" stroke="#c9bcaa" stroke-width="1"/>
<polygon points="601.2,1142.4 590.0,1142.4 590.0,954.8 601.2,954.8" fill="#dddcd4" fill-opacity="1" stroke="#7e827d" stroke-width="2"/>
<polygon points="980.6,1153.6 590.0,1153.6 590.0,1142.4 980.6,1142.4" fill="#dddcd4" fill-opacity="1" stroke="#7e827d" stroke-width="2"/>
<polygon points="980.6,1142.4 969.4,1142.4 969.4,823.9 980.6,823.9" fill="#dddcd4" fill-opacity="1" stroke="#7e827d" stroke-width="2"/>
<polygon points="594.2,954.8 577.4,954.8 577.4,729.4 594.2,729.4" fill="#dddcd4" fill-opacity="1" stroke="#7e827d" stroke-width="2"/>
<polygon points="601.2,957.6 577.4,957.6 577.4,954.8 601.2,954.8" fill="#dddcd4" fill-opacity="1" stroke="#7e827d" stroke-width="2"/>
<polygon points="986.2,679.0 969.4,679.0 969.4,362.6 986.2,362.6" fill="#dddcd4" fill-opacity="1" stroke="#7e827d" stroke-width="2"/>
<polygon points="986.2,362.6 577.4,362.6 577.4,345.8 986.2,345.8" fill="#dddcd4" fill-opacity="1" stroke="#7e827d" stroke-width="2"/>
<polygon points="1333.4,840.7 969.4,840.7 969.4,823.9 1333.4,823.9" fill="#dddcd4" fill-opacity="1" stroke="#7e827d" stroke-width="2"/>
<polygon points="1333.4,823.9 1316.6,823.9 1316.6,805.0 1333.4,805.0" fill="#dddcd4" fill-opacity="1" stroke="#7e827d" stroke-width="2"/>
<polygon points="1333.4,694.4 1316.6,694.4 1316.6,662.2 1333.4,662.2" fill="#dddcd4" fill-opacity="1" stroke="#7e827d" stroke-width="2"/>
<polygon points="1001.6,662.2 969.4,662.2 969.4,345.8 1001.6,345.8" fill="#dddcd4" fill-opacity="1" stroke="#7e827d" stroke-width="2"/>
<polygon points="1312.4,662.2 1295.6,662.2 1295.6,330.4 1312.4,330.4" fill="#dddcd4" fill-opacity="1" stroke="#7e827d" stroke-width="2"/>
<polygon points="1312.4,347.2 1001.6,347.2 1001.6,330.4 1312.4,330.4" fill="#dddcd4" fill-opacity="1" stroke="#7e827d" stroke-width="2"/>
<polygon points="1316.6,679.0 1131.8,679.0 1131.8,659.4 1316.6,659.4" fill="#dddcd4" fill-opacity="1" stroke="#7e827d" stroke-width="2"/>
<polygon points="1019.8,679.0 969.4,679.0 969.4,659.4 1019.8,659.4" fill="#dddcd4" fill-opacity="1" stroke="#7e827d" stroke-width="2"/>
<polygon points="594.2,746.2 489.2,746.2 489.2,729.4 594.2,729.4" fill="#dddcd4" fill-opacity="1" stroke="#7e827d" stroke-width="2"/>
<polygon points="377.2,746.2 300.2,746.2 300.2,729.4 377.2,729.4" fill="#dddcd4" fill-opacity="1" stroke="#7e827d" stroke-width="2"/>
<polygon points="283.4,602.0 266.6,602.0 266.6,263.2 283.4,263.2" fill="#dddcd4" fill-opacity="1" stroke="#7e827d" stroke-width="2"/>
<polygon points="594.2,280.0 266.6,280.0 266.6,263.2 594.2,263.2" fill="#dddcd4" fill-opacity="1" stroke="#7e827d" stroke-width="2"/>
<polygon points="966.6,1015.0 914.1,1015.0 914.1,823.9 966.6,823.9" fill="#f0eee7" fill-opacity="1" stroke="#8e8072" stroke-width="1.7"/>
<polygon points="921.8,1135.4 655.8,1135.4 655.8,1023.4 921.8,1023.4" fill="#bfcccf" fill-opacity="0.55" stroke="#385f78" stroke-width="2" stroke-dasharray="9 6"/>
<polygon points="794.4,912.8 702.0,912.8 702.0,833.0 794.4,833.0" fill="#9c765a" fill-opacity="1" stroke="#8e8072" stroke-width="1.7"/>
<polygon points="794.4,828.8 702.0,828.8 702.0,747.6 794.4,747.6" fill="#9c765a" fill-opacity="1" stroke="#8e8072" stroke-width="1.7"/>
<polygon points="861.6,925.4 802.8,925.4 802.8,861.0 861.6,861.0" fill="#a98665" fill-opacity="1" stroke="#786244" stroke-width="1"/>
<polygon points="693.6,925.4 634.8,925.4 634.8,861.0 693.6,861.0" fill="#a98665" fill-opacity="1" stroke="#786244" stroke-width="1"/>
<polygon points="861.6,810.6 802.8,810.6 802.8,746.2 861.6,746.2" fill="#a98665" fill-opacity="1" stroke="#786244" stroke-width="1"/>
<polygon points="693.6,810.6 634.8,810.6 634.8,746.2 693.6,746.2" fill="#a98665" fill-opacity="1" stroke="#786244" stroke-width="1"/>
<polygon points="965.9,646.0 922.5,646.0 922.5,370.7 965.9,370.7" fill="#f0eee7" fill-opacity="1" stroke="#8e8072" stroke-width="1.7"/>
<polygon points="346.4,585.2 283.4,585.2 283.4,298.2 346.4,298.2" fill="#f0eee7" fill-opacity="1" stroke="#8e8072" stroke-width="1.7"/>
<polygon points="581.6,586.6 504.6,586.6 504.6,348.6 581.6,348.6" fill="#9c765a" fill-opacity="1" stroke="#8e8072" stroke-width="1.7"/>
<polygon points="715.1,607.6 606.4,607.6 606.4,371.0 715.1,371.0" fill="#c7b99e" fill-opacity="1" stroke="#857760" stroke-width="2"/>
<polygon points="562.0,708.4 520.0,708.4 520.0,666.4 562.0,666.4" fill="#779372" fill-opacity="1" stroke="#587053" stroke-width="1"/>
<polygon points="483.6,494.2 417.8,494.2 417.8,427.0 483.6,427.0" fill="#a98665" fill-opacity="1" stroke="#786244" stroke-width="1"/>
<polygon points="794.4,947.1 601.2,947.1 601.2,941.5 794.4,941.5" fill="#f3f1eb" fill-opacity="1" stroke="#716451" stroke-width="1.8"/>
<polygon points="917.6,954.8 786.0,954.8 786.0,949.2 917.6,949.2" fill="#745139" fill-opacity="1" stroke="#716451" stroke-width="1.8"/>
<polygon points="1127.6,666.4 1024.0,666.4 1024.0,661.5 1127.6,661.5" fill="#745139" fill-opacity="1" stroke="#716451" stroke-width="1.8"/>
<polygon points="483.6,730.1 387.0,730.1 387.0,726.7 483.6,726.7" fill="#a7bcc0" fill-opacity="1" stroke="#716451" stroke-width="1.8"/>
<polygon points="308.8,705.6 305.2,702.3 373.5,624.4 377.1,627.7" fill="#f3f1eb" fill-opacity="1" stroke="#716451" stroke-width="1.8"/>
<rect x="728.8" y="1033.6" width="83.5" height="34" rx="5" fill="#faf8f3" fill-opacity=".91"/>
<text x="770.6" y="1055.6" text-anchor="middle" font-size="24" font-weight="600">加建細房</text>
<rect x="756.6" y="832.0" width="42.0" height="34" rx="5" fill="#faf8f3" fill-opacity=".91"/>
<text x="777.6" y="854.0" text-anchor="middle" font-size="24" font-weight="600">飯廳</text>
<rect x="780.4" y="514.2" width="42.0" height="34" rx="5" fill="#faf8f3" fill-opacity=".91"/>
<text x="801.4" y="536.2" text-anchor="middle" font-size="24" font-weight="600">客廳</text>
<rect x="320.4" y="347.6" width="208.8" height="34" rx="5" fill="#faf8f3" fill-opacity=".91"/>
<text x="424.8" y="369.6" text-anchor="middle" font-size="24" font-weight="600">原 A 房・開放書房</text>
<rect x="366.2" y="640.2" width="83.5" height="34" rx="5" fill="#faf8f3" fill-opacity=".91"/>
<text x="408.0" y="662.2" text-anchor="middle" font-size="24" font-weight="600">睡房通道</text>
<rect x="1137.4" y="732.6" width="42.0" height="34" rx="5" fill="#faf8f3" fill-opacity=".91"/>
<text x="1158.4" y="754.6" text-anchor="middle" font-size="24" font-weight="600">入口</text>
<rect x="1077.6" y="490.4" width="125.3" height="34" rx="5" fill="#faf8f3" fill-opacity=".91"/>
<text x="1140.2" y="512.4" text-anchor="middle" font-size="24" font-weight="600">廚房（輪廓）</text>
<rect x="670.5" y="1064.4" width="236.6" height="27" rx="5" fill="#faf8f3" fill-opacity=".91"/>
<text x="788.8" y="1079.4" text-anchor="middle" font-size="17" font-weight="600">上格床褥 190 × 80 cm</text>
<rect x="914.6" y="493.3" width="59.2" height="27" rx="5" fill="#faf8f3" fill-opacity=".91"/>
<text x="944.2" y="508.3" text-anchor="middle" font-size="17" font-weight="600">電視矮櫃</text>
<rect x="285.3" y="426.7" width="59.2" height="27" rx="5" fill="#faf8f3" fill-opacity=".91"/>
<text x="314.9" y="441.7" text-anchor="middle" font-size="17" font-weight="600">白色高櫃</text>
<rect x="520.9" y="452.6" width="44.4" height="27" rx="5" fill="#faf8f3" fill-opacity=".91"/>
<text x="543.1" y="467.6" text-anchor="middle" font-size="17" font-weight="600">半高枱</text>
<rect x="639.8" y="474.3" width="42.0" height="27" rx="5" fill="#faf8f3" fill-opacity=".91"/>
<text x="660.8" y="489.3" text-anchor="middle" font-size="17" font-weight="600">梳化</text>
<line x1="969.4" y1="1184.4" x2="969.4" y2="1233.4" stroke="#385f78" stroke-width="1.2"/>
<line x1="594.2" y1="1184.4" x2="594.2" y2="1233.4" stroke="#385f78" stroke-width="1.2"/>
<line x1="969.4" y1="1226.4" x2="594.2" y2="1226.4" stroke="#385f78" stroke-width="2"/>
<line x1="969.4" y1="1221.4" x2="969.4" y2="1231.4" stroke="#385f78" stroke-width="2"/>
<line x1="594.2" y1="1221.4" x2="594.2" y2="1231.4" stroke="#385f78" stroke-width="2"/>
<g transform="translate(781.8,1226.4) rotate(0.0)"><rect x="-76.5" y="-14" width="153.0" height="28" rx="4" fill="#faf8f3"/><text y="7" text-anchor="middle" class="dim" style="fill:#385f78">268 cm｜原圖</text></g>
<line x1="557.8" y1="1142.4" x2="508.8" y2="1142.4" stroke="#385f78" stroke-width="1.2"/>
<line x1="557.8" y1="823.9" x2="508.8" y2="823.9" stroke="#385f78" stroke-width="1.2"/>
<line x1="515.8" y1="1142.4" x2="515.8" y2="823.9" stroke="#385f78" stroke-width="2"/>
<line x1="520.8" y1="1142.4" x2="510.8" y2="1142.4" stroke="#385f78" stroke-width="2"/>
<line x1="520.8" y1="823.9" x2="510.8" y2="823.9" stroke="#385f78" stroke-width="2"/>
<g transform="translate(515.8,983.2) rotate(-90.0)"><rect x="-93.5" y="-14" width="187.0" height="28" rx="4" fill="#faf8f3"/><text y="7" text-anchor="middle" class="dim" style="fill:#385f78">227.5 cm｜原圖</text></g>
<line x1="577.4" y1="242.2" x2="577.4" y2="193.2" stroke="#385f78" stroke-width="1.2"/>
<line x1="283.4" y1="242.2" x2="283.4" y2="193.2" stroke="#385f78" stroke-width="1.2"/>
<line x1="577.4" y1="200.2" x2="283.4" y2="200.2" stroke="#385f78" stroke-width="2"/>
<line x1="577.4" y1="205.2" x2="577.4" y2="195.2" stroke="#385f78" stroke-width="2"/>
<line x1="283.4" y1="205.2" x2="283.4" y2="195.2" stroke="#385f78" stroke-width="2"/>
<g transform="translate(430.4,200.2) rotate(0.0)"><rect x="-102.0" y="-14" width="204.0" height="28" rx="4" fill="#faf8f3"/><text y="7" text-anchor="middle" class="dim" style="fill:#385f78">210 cm｜原 A 房</text></g>
<line x1="1295.6" y1="310.8" x2="1295.6" y2="261.8" stroke="#385f78" stroke-width="1.2"/>
<line x1="1001.6" y1="310.8" x2="1001.6" y2="261.8" stroke="#385f78" stroke-width="1.2"/>
<line x1="1295.6" y1="268.8" x2="1001.6" y2="268.8" stroke="#385f78" stroke-width="2"/>
<line x1="1295.6" y1="273.8" x2="1295.6" y2="263.8" stroke="#385f78" stroke-width="2"/>
<line x1="1001.6" y1="273.8" x2="1001.6" y2="263.8" stroke="#385f78" stroke-width="2"/>
<g transform="translate(1148.6,268.8) rotate(0.0)"><rect x="-93.5" y="-14" width="187.0" height="28" rx="4" fill="#faf8f3"/><text y="7" text-anchor="middle" class="dim" style="fill:#385f78">210 cm｜廚房原圖</text></g>
<line x1="1344.6" y1="659.4" x2="1393.6" y2="659.4" stroke="#385f78" stroke-width="1.2"/>
<line x1="1344.6" y1="347.2" x2="1393.6" y2="347.2" stroke="#385f78" stroke-width="1.2"/>
<line x1="1386.6" y1="659.4" x2="1386.6" y2="347.2" stroke="#385f78" stroke-width="2"/>
<line x1="1381.6" y1="659.4" x2="1391.6" y2="659.4" stroke="#385f78" stroke-width="2"/>
<line x1="1381.6" y1="347.2" x2="1391.6" y2="347.2" stroke="#385f78" stroke-width="2"/>
<g transform="translate(1386.6,503.3) rotate(-90.0)"><rect x="-93.5" y="-14" width="187.0" height="28" rx="4" fill="#faf8f3"/><text y="7" text-anchor="middle" class="dim" style="fill:#385f78">223 cm｜廚房原圖</text></g>
<line x1="969.4" y1="1138.2" x2="969.4" y2="1187.2" stroke="#a15d31" stroke-width="1.2"/>
<line x1="601.2" y1="1138.2" x2="601.2" y2="1187.2" stroke="#a15d31" stroke-width="1.2"/>
<line x1="969.4" y1="1180.2" x2="601.2" y2="1180.2" stroke="#a15d31" stroke-width="2"/>
<line x1="969.4" y1="1175.2" x2="969.4" y2="1185.2" stroke="#a15d31" stroke-width="2"/>
<line x1="601.2" y1="1175.2" x2="601.2" y2="1185.2" stroke="#a15d31" stroke-width="2"/>
<g transform="translate(785.3,1180.2) rotate(0.0)"><rect x="-93.5" y="-14" width="187.0" height="28" rx="4" fill="#faf8f3"/><text y="7" text-anchor="middle" class="dim" style="fill:#a15d31">263 cm｜細房實量</text></g>
<line x1="1403.4" y1="1142.4" x2="1452.4" y2="1142.4" stroke="#6f7866" stroke-width="1.2"/>
<line x1="1403.4" y1="362.6" x2="1452.4" y2="362.6" stroke="#6f7866" stroke-width="1.2"/>
<line x1="1445.4" y1="1142.4" x2="1445.4" y2="362.6" stroke="#6f7866" stroke-width="2" stroke-dasharray="7 5"/>
<line x1="1440.4" y1="1142.4" x2="1450.4" y2="1142.4" stroke="#6f7866" stroke-width="2"/>
<line x1="1440.4" y1="362.6" x2="1450.4" y2="362.6" stroke="#6f7866" stroke-width="2"/>
<g transform="translate(1445.4,752.5) rotate(-90.0)"><rect x="-93.5" y="-14" width="187.0" height="28" rx="4" fill="#faf8f3"/><text y="7" text-anchor="middle" class="dim" style="fill:#6f7866">約 557 cm｜推算</text></g>
<line x1="65" y1="1262.4" x2="1535" y2="1262.4" stroke="#d3cec4"/>
<line x1="70" y1="1298.4" x2="128" y2="1298.4" stroke="#385f78" stroke-width="4"/><text x="145" y="1305.4" class="note">原圖註明尺寸：268 cm 闊、227.5 cm 深、A 區 210 cm 闊。</text>
<line x1="70" y1="1337.4" x2="128" y2="1337.4" stroke="#a15d31" stroke-width="4"/><text x="145" y="1344.4" class="note">用戶現場量度：細房牆至牆 263 cm；與圖則 268 cm 分開保留。</text>
<line x1="70" y1="1376.4" x2="128" y2="1376.4" stroke="#6f7866" stroke-width="4" stroke-dasharray="7 5"/><text x="145" y="1383.4" class="note">虛線尺寸：按圖像比例推算；家具大小、位置及部分門口仍待量度。</text>
<text x="65" y="1434.4" class="small">上格床虛線為上方投影。此圖用於佈局溝通；數值來源以各尺寸線標示為準。</text>
<rect x="1250.0" y="1417.4" width="35.0" height="10" fill="#333d38" stroke="#333d38"/>
<rect x="1285.0" y="1417.4" width="35.0" height="10" fill="#eeeae0" stroke="#333d38"/>
<rect x="1320.0" y="1417.4" width="35.0" height="10" fill="#333d38" stroke="#333d38"/>
<rect x="1355.0" y="1417.4" width="35.0" height="10" fill="#eeeae0" stroke="#333d38"/>
<text x="1250" y="1455.4" class="small">0</text><text x="1390.0" y="1455.4" text-anchor="end" class="small">1 m</text>
</svg>